<?xml version="1.0" encoding="UTF-8"?>
<svg width="602px" height="162px" viewBox="0 0 602 162" version="1.1" xmlns="http://www.w3.org/2000/svg" xmlns:xlink="http://www.w3.org/1999/xlink">
    <!-- Generator: Sketch 49.3 (51167) - http://www.bohemiancoding.com/sketch -->
    <title>Group Copy</title>
    <desc>Created with Sketch.</desc>
    <defs>
        <linearGradient x1="-15.4720252%" y1="3.89432556%" x2="108.089784%" y2="100%" id="linearGradient-1">
            <stop stop-color="#FFAA08" offset="0%"></stop>
            <stop stop-color="#FFC727" offset="100%"></stop>
        </linearGradient>
        <linearGradient x1="50%" y1="0%" x2="50%" y2="100%" id="linearGradient-2">
            <stop stop-color="#FFB10F" offset="0%"></stop>
            <stop stop-color="#FFC929" offset="100%"></stop>
        </linearGradient>
        <linearGradient x1="50%" y1="0%" x2="50%" y2="100%" id="linearGradient-3">
            <stop stop-color="#FFA400" offset="0%"></stop>
            <stop stop-color="#FFC727" offset="100%"></stop>
        </linearGradient>
        <linearGradient x1="50%" y1="0%" x2="50%" y2="100%" id="linearGradient-4">
            <stop stop-color="#FFA908" offset="0%"></stop>
            <stop stop-color="#FFC622" offset="100%"></stop>
        </linearGradient>
        <linearGradient x1="50%" y1="0%" x2="50%" y2="100%" id="linearGradient-5">
            <stop stop-color="#FFA100" offset="0%"></stop>
            <stop stop-color="#FFCA2A" offset="100%"></stop>
        </linearGradient>
        <linearGradient x1="50%" y1="0%" x2="50%" y2="100%" id="linearGradient-6">
            <stop stop-color="#FFA907" offset="0%"></stop>
            <stop stop-color="#FFC520" offset="100%"></stop>
        </linearGradient>
        <linearGradient x1="50%" y1="0%" x2="50%" y2="100%" id="linearGradient-7">
            <stop stop-color="#FFC01E" offset="0%"></stop>
            <stop stop-color="#FFC726" offset="100%"></stop>
        </linearGradient>
    </defs>
    <g id="Symbols" stroke="none" stroke-width="1" fill="none" fill-rule="evenodd">
        <g id="logo">
            <g id="Group-Copy">
                <g id="Group-Copy-3">
                    <path d="M131.645161,28.3231481 L131.645161,0.866521477 C165.918153,2.16091258 191.107479,16.7233865 203.461433,41.6192933 C209.03874,52.8587833 212,66.2043876 212,81.3860759 C212,132.978987 179.080269,162 126.592865,162 L83.7741935,162 L83.7741935,86.5316456 L116.258065,86.5316456 L116.258065,134.556962 L127.698285,134.556962 C158.129272,134.556962 177.806452,116.560662 177.806452,81.2692169 C177.806452,48.4216924 159.819877,29.8879014 131.645161,28.3231481 Z" id="Combined-Shape" fill="url(#linearGradient-1)"></path>
                    <rect id="Rectangle-2" fill="url(#linearGradient-2)" x="85.483871" y="0.772151899" width="27.3548387" height="27.443038" rx="13.6774194"></rect>
                    <rect id="Rectangle-2-Copy-3" fill-opacity="0.840000033" fill="url(#linearGradient-3)" opacity="0.723763993" x="85.483871" y="41.9367089" width="27.3548387" height="27.443038" rx="13.6774194"></rect>
                    <rect id="Rectangle-2-Copy" fill="url(#linearGradient-4)" opacity="0.796641791" x="44.4516129" y="0.772151899" width="27.3548387" height="27.443038" rx="13.6774194"></rect>
                    <rect id="Rectangle-2-Copy-4" fill="url(#linearGradient-5)" opacity="0.556494869" x="42.7419355" y="43.6518987" width="27.3548387" height="27.443038" rx="13.6774194"></rect>
                    <rect id="Rectangle-2-Copy-5" fill="url(#linearGradient-6)" opacity="0.406191698" x="42.7419355" y="86.5316456" width="27.3548387" height="27.443038" rx="13.6774194"></rect>
                    <rect id="Rectangle-2-Copy-2" fill="url(#linearGradient-7)" opacity="0.236415578" x="0" y="0.772151899" width="27.3548387" height="27.443038" rx="13.6774194"></rect>
                </g>
                <g id="Group-2" transform="translate(240.000000, 18.000000)">
                    <rect id="Combined-Shape" fill="#3F3F3F" x="240.390625" y="34.9130435" width="22.3033175" height="95.3333333"></rect>
                    <ellipse id="Oval" fill="#FFBC1B" cx="251.700625" cy="11.30185" rx="11.3100004" ry="11.30185"></ellipse>
                    <path d="M298.640478,104.573207 C298.562913,104.306701 298.521327,104.024874 298.521327,103.733333 L298.521327,54.6723958 L277.933649,54.6723958 L277.933649,35.6666667 L298.521327,35.6666667 L298.521327,1 L320.824645,1 L320.824645,35.6666667 L362,35.6666667 L362,54.6723958 L320.824645,54.6723958 L320.824645,102.50419 C321.183882,106.228473 323.652787,108.439372 327.586008,108.439372 L327.586008,108.466667 L362,108.466667 L362,129.266667 L327.586008,129.266667 L327.586008,129.279701 C327.215123,129.279701 326.847484,129.275342 326.48311,129.266667 L324.824645,129.266667 C324.443476,129.266667 324.07476,129.213352 323.725547,129.113772 C308.601431,127.777252 299.751748,118.460484 298.640478,104.573207 Z" id="Combined-Shape" fill="#3F3F3F"></path>
                    <path d="M84.067032,129.990168 L23.7909398,129.990168 L-1.10134124e-13,130 L-1.10134124e-13,-1.98951966e-13 L21.6867595,-1.98951966e-13 L21.6887453,0.1226797 L84.0663507,0.1226797 L84.0663507,-1.98951966e-13 C84.9956447,-1.98951966e-13 85.9051648,0.0414705131 86.7943069,0.1226797 L88.2019176,0.1226797 C88.4097836,0.210377809 88.6085913,0.295473064 88.7983407,0.377965467 C103.024734,2.71659306 111.516588,15.6256529 111.516588,31.2 L111.516588,98.8 C111.516588,115.605774 101.628785,129.308122 85.3176108,129.974607 L85.316298,129.990168 L84.8469004,129.990168 C84.588295,129.99671 84.3281073,130 84.0663507,130 C84.0665778,129.996722 84.0668049,129.993445 84.067032,129.990168 Z M20.0000001,19.0666623 L20.0000001,112.784958 L81.9999983,112.784958 C86.4182763,112.784958 89.9999983,109.203236 89.9999983,104.784958 L89.9999999,27.0666608 C89.999999,22.6483828 86.4182763,19.0666615 81.9999983,19.0666623 L68.0180226,19.0666667 L20.0000001,19.0666623 Z" id="Combined-Shape" fill="#3F3F3F" fill-rule="nonzero"></path>
                    <path d="M202.445498,34.6666667 C214.595762,34.6666667 224.445498,44.9103916 224.445498,57.5466667 L224.445498,107.12 C224.445498,119.756275 214.595762,130 202.445498,130 L202.445498,34.6666667 Z M194.752808,53.0880676 C194.74343,53.0581609 194.733977,53.028805 194.724449,53 L147.200328,53 L147.200328,53.063335 L147.079478,53.063335 L147.079478,112.666667 L147.200328,112.666667 L147.200328,113 L193.276467,113 C193.284514,112.888736 193.292546,112.777625 193.300558,112.666666 L194.119086,112.666667 C198.537364,112.666667 202.119086,109.084945 202.119086,104.666667 L202.119086,61.063335 C202.119086,56.8583501 198.874834,53.4111011 194.752808,53.0880676 Z M147.315196,35 L198.149354,35 C198.198676,34.8893121 198.248417,34.778201 198.298578,34.6666667 C213.458925,34.6666667 225.748815,44.9103916 225.748815,57.5466667 L225.748815,107.12 C225.748815,119.756275 217.460564,129.838091 198.919143,130.046404 L198.903182,130 L126.586037,130 L125.241706,130 L125.241706,-2.84217094e-14 L147.545024,-2.84217094e-14 L147.315196,35 Z" id="Combined-Shape" fill="#3F3F3F" fill-rule="nonzero"></path>
                </g>
            </g>
        </g>
    </g>
</svg>